<svg  xmlns="http://www.w3.org/2000/svg"
      xmlns:openbadges="http://openbadges.org"
      xmlns:xlink="http://www.w3.org/1999/xlink"
      viewBox="0 0 350 336.24">
  <openbadges:assertion verify="https://s3.amazonaws.com/rapidminer.badges/Assertions/88070ffc-205e-45d0-81d0-42ead804cc85.json">
        <![CDATA[
        {
          "uid":"88070ffc-205e-45d0-81d0-42ead804cc85",
          "recipient":
            {
              "type":"email",
              "identity":"sha256$47b2a9210009aafbea20044b0672929e8d158c583b807bf7a2bd08d5a3840f8c",
              "hashed":true
              },
              "issuedOn":"2021-02-27T20:07:02.850Z",
              "badge":"https://s3.amazonaws.com/rapidminer.badges/Badges/rapidminer-ML1-badge.json",
              "verify":
                {
                  "type":"hosted",
                  "url":"https://s3.amazonaws.com/rapidminer.badges/Assertions/88070ffc-205e-45d0-81d0-42ead804cc85.json"
                  }
          }
        ]]>
    </openbadges:assertion>
    <defs><style>.cls-1,.cls-2,.cls-4{fill:#fff;}.cls-2{stroke:#62b1cb;stroke-miterlimit:10;stroke-width:0.64px;}.cls-3{fill:#62b1cb;}.cls-4{fill-rule:evenodd;}</style></defs><title>RAC_</title><circle class="cls-1" cx="40.64" cy="39.25" r="33.35"/><path class="cls-2" d="M79,34.27A39.37,39.37,0,1,0,45.73,79,39.42,39.42,0,0,0,79,34.27ZM62,56.34A27.39,27.39,0,1,1,56.34,18,27.42,27.42,0,0,1,62,56.34Z"/><path class="cls-3" d="M10.43,29.51l-3.3-.2v0c.53.14.93.26,1.22.36l1.8.64-.35,1L5.63,29.86l.53-1.5,3.26.17v0L6.77,26.62l.53-1.5,4.16,1.47-.36,1L9.27,27,9,26.86c-.12,0-.4-.15-.84-.34v0l2.7,1.89Z"/><path class="cls-3" d="M13.41,23.07l-.83-.22-.71,1.25.61.6-.65,1.14L8.7,22.39,9.48,21l4.57.93Zm-1.8-.49-.72-.19-.63-.17-.53-.16c.08.06.2.18.38.34s.53.5,1,1Z"/><path class="cls-3" d="M13.11,17.46a.77.77,0,0,0-.14.74,1.71,1.71,0,0,0,.61.78c.66.53,1.2.54,1.6,0a2.18,2.18,0,0,0,.29-.49,4.59,4.59,0,0,0,.18-.56l.8.63a3.15,3.15,0,0,1-.59,1.13,2,2,0,0,1-1.4.84,2.41,2.41,0,0,1-1.65-.62A2.56,2.56,0,0,1,12,19a1.85,1.85,0,0,1-.17-1.08,2.32,2.32,0,0,1,.49-1.06A3.1,3.1,0,0,1,13.44,16l.51.87a4.83,4.83,0,0,0-.45.26A2.19,2.19,0,0,0,13.11,17.46Z"/><path class="cls-3" d="M20.28,15.12l-.88.82-1.22-1.32-1,.94,1.22,1.32-.88.81-3-3.24.89-.81,1.11,1.2,1-.94L16.4,12.7l.88-.82Z"/><path class="cls-3" d="M21.54,14.21,19,10.61l1-.7,2.55,3.61Z"/><path class="cls-3" d="M27.49,10.71l-1.38.71-2.86-2h0c.26.42.45.74.57,1l.91,1.76-.94.49-2-3.92L23.12,8,26,10h0c-.23-.38-.41-.69-.53-.93l-.92-1.77.94-.49Z"/><path class="cls-3" d="M31.33,9.37l-2.48.83L27.45,6l2.48-.83.31.91-1.36.45.22.66,1.26-.42.3.9-1.25.43.26.78L31,8.45Z"/><path class="cls-3" d="M35.11,8.55l-.5-4.38L35.8,4l.38,3.43,1.69-.19.11,1Z"/><path class="cls-3" d="M41.91,8.24l-2.62-.05.09-4.41L42,3.83l0,1-1.43,0v.69l1.32,0,0,1-1.32,0,0,.83,1.43,0Z"/><path class="cls-3" d="M45.87,8.78l-.08-.85L44.38,7.7,44,8.47l-1.29-.21,2.15-4.13,1.57.26L47.15,9Zm-.16-1.85-.07-.75c0-.17,0-.38-.06-.64s0-.45,0-.56c0,.09-.1.25-.19.48s-.28.66-.58,1.31Z"/><path class="cls-3" d="M49.71,8.13,49.2,9.65l-1.13-.37,1.4-4.19,1.37.46c1.14.38,1.57,1,1.29,1.81a1.28,1.28,0,0,1-1.08.88l.61,2.23-1.28-.42L50,8.23ZM50,7.28l.21.07c.39.13.65,0,.76-.32s0-.5-.43-.63l-.23-.07Z"/><path class="cls-3" d="M56.14,12.77,54.76,12l0-3.5h0c-.19.45-.35.79-.47,1l-.93,1.76-.93-.49,2.06-3.9,1.37.72v3.46h0c.18-.4.34-.72.46-1l.93-1.77.94.5Z"/><path class="cls-3" d="M57.4,13.67,60,10.08l1,.7-2.57,3.59Z"/><path class="cls-3" d="M62.66,18.13l-1.13-1.07,1-3.37h0c-.31.38-.55.66-.73.85L60.38,16l-.77-.73,3-3.21,1.13,1.07-.94,3.33h0c.28-.34.52-.61.7-.8l1.37-1.45.77.72Z"/><path class="cls-3" d="M66.69,19l1.14,1.53L65.93,22a5.21,5.21,0,0,1-1.23-1.21,2.06,2.06,0,0,1-.48-1.61,2.36,2.36,0,0,1,1-1.46,2.2,2.2,0,0,1,1.7-.51,2.32,2.32,0,0,1,1.5,1,3.81,3.81,0,0,1,.64,1.31l-1,.26a2.24,2.24,0,0,0-.44-1,1,1,0,0,0-.75-.44,1.46,1.46,0,0,0-1,.35,1.52,1.52,0,0,0-.6.77.88.88,0,0,0,.19.79,2.94,2.94,0,0,0,.33.36l.56-.41L66,19.59Z"/><path class="cls-3" d="M19.85,66.33a1.5,1.5,0,0,1-1.06.61,1.8,1.8,0,0,1-1.22-.48l-.26-.21-.93,1.13-.92-.76,2.81-3.4,1.18,1a1.89,1.89,0,0,1,.74,1.08A1.31,1.31,0,0,1,19.85,66.33Zm-1.92-.83.17.14a.61.61,0,0,0,.43.15.53.53,0,0,0,.38-.22.42.42,0,0,0-.09-.66l-.24-.19Z"/><path class="cls-3" d="M21.65,69.19l-.82,1.38-1-.61,2.25-3.8,1.24.74c1,.61,1.33,1.29.88,2a1.31,1.31,0,0,1-1.25.64l.13,2.31L21.9,71.2V69.34Zm.46-.77.19.11c.36.21.63.16.82-.16s.06-.49-.3-.7l-.2-.12Z"/><path class="cls-3" d="M29.57,72.19a2.38,2.38,0,0,1-1.12,1.39,2.06,2.06,0,0,1-1.7,0,2.11,2.11,0,0,1-1.28-1.11,2.38,2.38,0,0,1,.1-1.78,2.32,2.32,0,0,1,1.12-1.38,2.06,2.06,0,0,1,1.7,0,2.09,2.09,0,0,1,1.28,1.11A2.35,2.35,0,0,1,29.57,72.19ZM26.74,71.1c-.31.8-.19,1.3.37,1.52a.77.77,0,0,0,.73-.05,1.67,1.67,0,0,0,.56-.83,1.71,1.71,0,0,0,.14-1,.74.74,0,0,0-.5-.53C27.48,70,27,70.3,26.74,71.1Z"/><path class="cls-3" d="M32.21,75.12l-1.15-.25L32,70.56l2.55.55-.21.93-1.4-.3-.18.82,1.29.28-.2.94-1.29-.28Z"/><path class="cls-3" d="M38.41,76l-2.61-.21.37-4.4,2.61.22-.08,1-1.43-.12-.05.69,1.31.11-.08,1L37.14,74l-.07.83,1.42.12Z"/><path class="cls-3" d="M43.49,74.49a1.31,1.31,0,0,1-.17.74,1.39,1.39,0,0,1-.57.53,2.31,2.31,0,0,1-.92.22,3.47,3.47,0,0,1-.74,0,2.75,2.75,0,0,1-.63-.18l-.05-1.06a3.56,3.56,0,0,0,.72.23,2.77,2.77,0,0,0,.68.06.64.64,0,0,0,.38-.11.27.27,0,0,0,.11-.24.3.3,0,0,0,0-.16l-.17-.13-.6-.25a2.74,2.74,0,0,1-.67-.34,1.21,1.21,0,0,1-.34-.41,1.48,1.48,0,0,1-.14-.56,1.12,1.12,0,0,1,.4-1,1.91,1.91,0,0,1,1.2-.4,3.28,3.28,0,0,1,1.41.24l-.32.94a2.53,2.53,0,0,0-1.08-.23.54.54,0,0,0-.33.1.26.26,0,0,0-.1.21.32.32,0,0,0,.15.22,5,5,0,0,0,.75.34,2.1,2.1,0,0,1,.82.5A1.28,1.28,0,0,1,43.49,74.49Z"/><path class="cls-3" d="M48.31,73.68a1.35,1.35,0,0,1-.06.75,1.31,1.31,0,0,1-.5.6,2.15,2.15,0,0,1-.87.35,3.6,3.6,0,0,1-.74.08,2.6,2.6,0,0,1-.65-.09l-.2-1a3.8,3.8,0,0,0,.75.13,2.49,2.49,0,0,0,.68,0,.64.64,0,0,0,.36-.17.27.27,0,0,0,.08-.25.28.28,0,0,0-.08-.15.5.5,0,0,0-.18-.1,4.44,4.44,0,0,0-.63-.17,2.71,2.71,0,0,1-.71-.25,1.23,1.23,0,0,1-.4-.35,1.79,1.79,0,0,1-.21-.54,1.15,1.15,0,0,1,.26-1,1.92,1.92,0,0,1,1.13-.56,3.31,3.31,0,0,1,1.43,0l-.18,1a2.69,2.69,0,0,0-1.1-.07.6.6,0,0,0-.32.14.23.23,0,0,0-.06.22.26.26,0,0,0,.17.2,4.06,4.06,0,0,0,.79.23A2.13,2.13,0,0,1,48,73,1.24,1.24,0,0,1,48.31,73.68Z"/><path class="cls-3" d="M50.56,74.42l-1.35-4.2,1.15-.37,1.34,4.21Z"/><path class="cls-3" d="M56.79,69.45A2.39,2.39,0,0,1,57,71.21a2.47,2.47,0,0,1-2.88,1.38,2.87,2.87,0,0,1-1.47-3,2.14,2.14,0,0,1,1.19-1.22,2.11,2.11,0,0,1,1.69-.17A2.4,2.4,0,0,1,56.79,69.45Zm-2.74,1.32c.37.76.82,1,1.36.76a.76.76,0,0,0,.47-.57,1.72,1.72,0,0,0-.22-1,1.8,1.8,0,0,0-.63-.78.78.78,0,0,0-.73,0C53.76,69.47,53.68,70,54.05,70.77Z"/><path class="cls-3" d="M63.3,67.64l-1.25.92L58.91,67h0c.32.37.56.66.71.87l1.18,1.6-.85.63-2.61-3.56,1.25-.92,3.11,1.52h0c-.28-.34-.51-.62-.66-.84l-1.19-1.61.86-.63Z"/><path class="cls-3" d="M67.13,63.88l-.75-.41-1,1,.45.73-.9,1-2.24-4.09L63.8,61l4.23,2ZM65.5,63l-.66-.36-.56-.31L63.79,62c.07.08.16.22.3.42l.77,1.22Z"/><path class="cls-3" d="M69.27,61.28l-3.64-2.49.67-1,2.85,2,1-1.4.79.54Z"/><polygon class="cls-3" points="63.15 53.14 43.41 64.73 40.2 66.62 37.13 64.87 19.94 55.12 17.05 53.48 17.02 50.07 16.88 30.79 16.85 26.86 20.48 24.73 35.51 15.9 39.8 13.38 44.35 15.97 62.95 26.52 63.15 53.14"/><path class="cls-4" d="M29.07,31.92a2.91,2.91,0,0,0-1.53,2.62V46c-1.74,1-2.25-.35-2.25-1.08V36.08l.11-1.52,1.23-1.92,2.44-.72Zm4,2.32a2.93,2.93,0,0,0-1.53,2.63v6.75l-2.25,1.3V38.41l.11-1.52L30.66,35l2.44-.73Zm4,2.33A2.93,2.93,0,0,0,35.6,39.2v2.09l-2.25,1.3V40.73l.11-1.52,1.23-1.92Z"/><path class="cls-4" d="M52.47,45.07a3.84,3.84,0,0,1-1.67,3.09l-11,6.36c-1,.55-2.06.56-2.41-.35,0,2.19,2,3.19,3.89,2.09l9.49-5.48L52,49.93l1-2c-.2-.83-.39-2-.59-2.83Zm-4-2.32c.2.82.39,2,.59,2.82l-1,2-1.27.85-9.49,5.49c-1.91,1.1-3.89.09-3.89-2.1.35.91,1.46.9,2.41.36l11-6.37a3.8,3.8,0,0,0,1.67-3.08Zm-4-2.33c.2.83.39,2,.59,2.82l-1,2-1.27.85L33.2,51.61c-1.91,1.1-3.89.09-3.89-2.1.35.92,1.46.91,2.41.36l11-6.37a3.8,3.8,0,0,0,1.67-3.08Zm-4-2.33c.2.83.39,2,.59,2.83l-1,2-1.27.85-9.49,5.48c-1.91,1.1-3.89.1-3.89-2.09.35.91,1.46.9,2.41.35l11-6.36A3.84,3.84,0,0,0,40.38,38.09Z"/><path class="cls-4" d="M35.6,37.45l3.31-1.91V33l-3.32,1.92a4.33,4.33,0,0,0-2.23,3.84v2.65a3.88,3.88,0,0,1,2.25-3.91Zm-4-2.32A3.74,3.74,0,0,0,29.32,39V36.38a4.36,4.36,0,0,1,2.23-3.84l7.35-4.24v2.59l-7.34,4.24Zm-4-2.33a4.36,4.36,0,0,0-2.25,3.91V34.05a4.36,4.36,0,0,1,2.23-3.84l9.29-5.36c1-.61,2.09.11,2.09,1.39Z"/><path class="cls-4" d="M52.47,47.19V32.72c0-1.2-.55-2.26-1.55-2,2.37-1.18,3.79.34,3.79,2.63,0,4.11,0,8.48,0,12.6a4.36,4.36,0,0,1-2.21,3.85l-2.3,1.33a4.24,4.24,0,0,0,2.26-3.9Zm-4-2.32a4.26,4.26,0,0,1-2.26,3.9l2.3-1.33a4.37,4.37,0,0,0,2.21-3.86c0-4.11,0-8.49,0-12.6,0-2.29-1.42-3.81-3.79-2.63,1-.22,1.55.84,1.55,2V44.87Zm-4-2.33V28.06c0-1.2-.55-2.25-1.55-2,2.37-1.17,3.79.34,3.79,2.63,0,4.11,0,8.49,0,12.6a4.37,4.37,0,0,1-2.21,3.86l-2.3,1.33a4.25,4.25,0,0,0,2.26-3.9Zm-4-2.33a4.24,4.24,0,0,1-2.26,3.9l2.3-1.33a4.36,4.36,0,0,0,2.21-3.85c0-4.12,0-8.49,0-12.6,0-2.29-1.42-3.81-3.79-2.63,1-.22,1.55.84,1.55,2Z"/>
</svg>




