<svg xmlns="http://www.w3.org/2000/svg" xmlns:openbadges="http://openbadges.org" xmlns:xlink="http://www.w3.org/1999/xlink" width="132" height="132" viewBox="0 0 81 81"><rect id="backgroundrect" width="100%" height="100%" x="0" y="0" fill="none" stroke="none" class="" style=""/>
  <openbadges:assertion verify="https://s3.amazonaws.com/rapidminer.badges/Assertions/e8d59979-7422-4ede-bda7-b8fc86a88401.json">
        <![CDATA[
        {
          "uid":"e8d59979-7422-4ede-bda7-b8fc86a88401",
          "recipient":
            {
              "type":"email",
              "identity":"sha256$47b2a9210009aafbea20044b0672929e8d158c583b807bf7a2bd08d5a3840f8c",
              "hashed":true
              },
              "issuedOn":"2021-02-10T19:21:22.109Z",
              "badge":"https://s3.amazonaws.com/rapidminer.badges/Badges/rapidminer-DE1-badge.json",
              "verify":
                {
                  "type":"hosted",
                  "url":"https://s3.amazonaws.com/rapidminer.badges/Assertions/e8d59979-7422-4ede-bda7-b8fc86a88401.json"
                  }
          }
        ]]>
    </openbadges:assertion>
    <defs><style>.cls-1,.cls-2,.cls-5{fill:#fff;}.cls-2{stroke:#6751a8;stroke-miterlimit:10;stroke-width:0.64px;}.cls-3{fill:#6751a8;}.cls-4{fill:#6650a7;}.cls-5{fill-rule:evenodd;}</style></defs><title>RAC_</title>
<g class="currentLayer" style=""><title>Layer 1</title><circle class="cls-1" cx="40.63999938964844" cy="39.25" r="33.349998474121094" id="svg_1"/><path class="cls-2" d="M79,34.27A39.37,39.37,0,1,0,45.73,79,39.42,39.42,0,0,0,79,34.27ZM62,56.34A27.39,27.39,0,1,1,56.34,18,27.42,27.42,0,0,1,62,56.34Z" id="svg_2"/><path class="cls-3" d="M10.16,24.09a2.29,2.29,0,0,1,1.31,1.24,2.33,2.33,0,0,1-.14,1.81l-.57,1.3-4-1.77.61-1.4A2.34,2.34,0,0,1,8.49,24,2.06,2.06,0,0,1,10.16,24.09ZM9.7,25.24a1.41,1.41,0,0,0-.92-.14.89.89,0,0,0-.56.55L8.08,26l2.26,1,.11-.24a1,1,0,0,0,0-.86A1.6,1.6,0,0,0,9.7,25.24Z" id="svg_3"/><path class="cls-3" d="M14.15,21.91l-.82-.25-.76,1.21.58.63-.7,1.11L9.47,21l.85-1.35,4.53,1.13Zm-1.77-.56-.72-.23-.61-.2-.53-.18.37.36,1,1Z" id="svg_4"/><path class="cls-3" d="M16.56,18.8l-.77.91L13.16,17.5l-.69.82-.75-.63,2.15-2.55.75.62-.69.82Z" id="svg_5"/><path class="cls-3" d="M19.83,15.56l-.72-.47-1.06,1,.39.76-1,.88-1.9-4.25,1.18-1.07,4.05,2.31Zm-1.56-1-.63-.41-.53-.35-.47-.33.27.45c.11.21.34.63.67,1.27Z" id="svg_6"/><path class="cls-3" d="M25.43,11.74l-2.26,1.33L20.94,9.26,23.2,7.93l.48.83-1.23.72.35.6,1.14-.67.48.83-1.13.67.42.71,1.23-.72Z" id="svg_7"/><path class="cls-3" d="M30.15,9.69l-1.45.59L26,8h0q.33.66.48,1l.74,1.84-1,.4L24.6,7.19,26,6.6l2.64,2.24h0c-.2-.4-.34-.72-.45-1L27.5,6l1-.4Z" id="svg_8"/><path class="cls-3" d="M32.27,6.5l1.86-.43.53,2.32a5.21,5.21,0,0,1-1.6.64,2,2,0,0,1-1.67-.23,2.33,2.33,0,0,1-.92-1.51,2.21,2.21,0,0,1,.22-1.76,2.33,2.33,0,0,1,1.53-1,3.11,3.11,0,0,1,.79-.1,2.81,2.81,0,0,1,.67,0l-.16,1a2.28,2.28,0,0,0-1.07,0,1,1,0,0,0-.71.51,1.41,1.41,0,0,0-.06,1,1.45,1.45,0,0,0,.46.86.91.91,0,0,0,.8.15,1.91,1.91,0,0,0,.46-.16l-.15-.67-.77.17Z" id="svg_9"/><path class="cls-3" d="M35.92,8.46l-.47-4.39,1.19-.13.48,4.39Z" id="svg_10"/><path class="cls-3" d="M42.51,8.25,41,8.22,39.39,5.09h0c0,.49,0,.86,0,1.12l0,2-1.06,0,.08-4.41,1.55,0,1.56,3.1h0c0-.45,0-.81,0-1.08l0-2,1.07,0Z" id="svg_11"/><path class="cls-3" d="M46.21,8.83l-2.59-.42.71-4.35,2.59.42-.16.94-1.41-.23-.11.69,1.31.21-.16,1-1.3-.22L45,7.64l1.41.23Z" id="svg_12"/><path class="cls-3" d="M49.76,9.81l-2.51-.73,1.22-4.24L51,5.57l-.27.92-1.37-.4-.19.67,1.27.36L50.16,8l-1.27-.36-.23.8L50,8.87Z" id="svg_13"/><path class="cls-3" d="M52.46,9.15l-.64,1.47-1.09-.48,1.76-4,1.33.58c1.09.48,1.47,1.11,1.12,1.91a1.3,1.3,0,0,1-1.16.79l.41,2.27L53,11.11l-.21-1.84Zm.36-.83.2.09c.39.17.65.09.8-.25s0-.5-.38-.66l-.22-.1Z" id="svg_14"/><path class="cls-3" d="M54.81,12.06,57,8.24l1,.6-2.21,3.82Z" id="svg_15"/><path class="cls-3" d="M60.25,15.8l-1.24-1,.59-3.45,0,0c-.26.42-.48.73-.63.93l-1.2,1.59-.84-.64,2.66-3.52,1.24.94-.57,3.42h0c.25-.37.45-.67.62-.88l1.2-1.59.85.64Z" id="svg_16"/><path class="cls-3" d="M64.12,16l1.31,1.38L63.71,19A5.28,5.28,0,0,1,62.34,18a2.05,2.05,0,0,1-.66-1.55,2.39,2.39,0,0,1,.84-1.57,2.19,2.19,0,0,1,1.62-.7,2.34,2.34,0,0,1,1.61.82,4.59,4.59,0,0,1,.49.62,4.18,4.18,0,0,1,.3.6l-.94.38a2.36,2.36,0,0,0-.55-.92,1,1,0,0,0-.81-.35,1.47,1.47,0,0,0-.9.47,1.52,1.52,0,0,0-.5.83.91.91,0,0,0,.28.77,2.15,2.15,0,0,0,.38.31l.5-.47-.55-.57Z" id="svg_17"/><path class="cls-3" d="M19.85,66.33a1.48,1.48,0,0,1-1.06.61,1.8,1.8,0,0,1-1.22-.48l-.25-.21-.94,1.13-.91-.76,2.8-3.41,1.18,1a1.84,1.84,0,0,1,.74,1.08A1.31,1.31,0,0,1,19.85,66.33Zm-1.92-.83.17.14a.61.61,0,0,0,.43.15.53.53,0,0,0,.38-.22.42.42,0,0,0-.09-.66l-.24-.19Z" id="svg_18"/><path class="cls-3" d="M21.65,69.19l-.82,1.38-1-.61,2.25-3.8,1.24.74c1,.61,1.33,1.29.88,2a1.3,1.3,0,0,1-1.25.64l.13,2.31L21.9,71.2V69.34Zm.46-.78.19.12c.36.21.63.16.82-.16s.06-.49-.29-.7l-.21-.12Z" id="svg_19"/><path class="cls-3" d="M29.57,72.19a2.38,2.38,0,0,1-1.12,1.39,2.51,2.51,0,0,1-3-1.15,2.41,2.41,0,0,1,.1-1.79,2.33,2.33,0,0,1,1.12-1.37,2.06,2.06,0,0,1,1.7,0,2.09,2.09,0,0,1,1.28,1.11A2.35,2.35,0,0,1,29.57,72.19ZM26.74,71.1c-.31.8-.19,1.3.37,1.52a.8.8,0,0,0,.74-.05,1.73,1.73,0,0,0,.55-.83,1.71,1.71,0,0,0,.14-1,.74.74,0,0,0-.5-.53C27.48,70,27.05,70.3,26.74,71.1Z" id="svg_20"/><path class="cls-3" d="M32.21,75.11l-1.15-.25L32,70.55l2.55.56-.21.93-1.4-.3-.18.82,1.3.28-.21.94-1.29-.28Z" id="svg_21"/><path class="cls-3" d="M38.41,76l-2.61-.21.37-4.4,2.61.22-.08,1-1.43-.12-.05.69,1.31.11-.08,1L37.14,74l-.07.83,1.42.11Z" id="svg_22"/><path class="cls-3" d="M43.49,74.49a1.33,1.33,0,0,1-.17.74,1.46,1.46,0,0,1-.57.53,2.3,2.3,0,0,1-.91.22,3.56,3.56,0,0,1-.75,0,2.75,2.75,0,0,1-.63-.18l-.05-1.06a3.56,3.56,0,0,0,.72.23,2.77,2.77,0,0,0,.68.06.61.61,0,0,0,.38-.11.3.3,0,0,0,.06-.4.84.84,0,0,0-.17-.13l-.6-.25a2.71,2.71,0,0,1-.67-.35,1.17,1.17,0,0,1-.34-.4,1.36,1.36,0,0,1-.13-.56,1.11,1.11,0,0,1,.39-1,2,2,0,0,1,1.2-.41,3.45,3.45,0,0,1,1.41.25l-.32.94a2.53,2.53,0,0,0-1.08-.23.56.56,0,0,0-.33.1.25.25,0,0,0-.1.2.32.32,0,0,0,.15.23,5.44,5.44,0,0,0,.75.33,2.1,2.1,0,0,1,.82.51A1.21,1.21,0,0,1,43.49,74.49Z" id="svg_23"/><path class="cls-3" d="M48.31,73.68a1.36,1.36,0,0,1-.06.75,1.31,1.31,0,0,1-.5.6,2.15,2.15,0,0,1-.87.35,3.58,3.58,0,0,1-.73.08,2.61,2.61,0,0,1-.66-.09l-.2-1a3.93,3.93,0,0,0,.75.13,3.66,3.66,0,0,0,.68,0,.64.64,0,0,0,.36-.17.29.29,0,0,0,.08-.26.25.25,0,0,0-.08-.14.7.7,0,0,0-.18-.11l-.63-.16a3.33,3.33,0,0,1-.71-.25,1,1,0,0,1-.39-.36,1.34,1.34,0,0,1-.21-.53,1.12,1.12,0,0,1,.25-1,1.9,1.9,0,0,1,1.13-.56,3.31,3.31,0,0,1,1.43,0l-.18,1a2.69,2.69,0,0,0-1.1-.07.64.64,0,0,0-.32.14.23.23,0,0,0-.06.22.26.26,0,0,0,.17.2,5,5,0,0,0,.79.23A2.07,2.07,0,0,1,48,73,1.24,1.24,0,0,1,48.31,73.68Z" id="svg_24"/><path class="cls-3" d="M50.56,74.42l-1.34-4.2,1.14-.37,1.34,4.21Z" id="svg_25"/><path class="cls-3" d="M56.79,69.45A2.38,2.38,0,0,1,57,71.21a2.47,2.47,0,0,1-2.88,1.38,2.36,2.36,0,0,1-1.23-1.29,2.3,2.3,0,0,1-.23-1.75,2.11,2.11,0,0,1,1.19-1.22,2.08,2.08,0,0,1,1.68-.17A2.4,2.4,0,0,1,56.79,69.45Zm-2.74,1.31c.37.77.83,1,1.36.77a.76.76,0,0,0,.47-.57,1.72,1.72,0,0,0-.22-1,1.68,1.68,0,0,0-.63-.78.76.76,0,0,0-.73,0C53.76,69.47,53.68,70,54.05,70.76Z" id="svg_26"/><path class="cls-3" d="M63.31,67.63l-1.26.93L58.91,67l0,0c.32.37.56.66.71.87l1.18,1.6-.85.63-2.61-3.56,1.25-.92,3.11,1.52h0c-.29-.35-.51-.62-.67-.84l-1.19-1.61.86-.63Z" id="svg_27"/><path class="cls-3" d="M67.13,63.88l-.75-.41-1,1,.45.73-.9,1-2.24-4.09L63.81,61l4.22,2ZM65.5,63l-.66-.36-.56-.31L63.79,62c.07.08.16.22.3.42l.77,1.22Z" id="svg_28"/><path class="cls-3" d="M69.27,61.28l-3.64-2.49.67-1,2.85,2,1-1.4.8.54Z" id="svg_29"/><polygon class="cls-4" points="63.15 53.14 43.41 64.73 40.2 66.62 37.13 64.87 19.94 55.12 17.05 53.48 17.02 50.07 16.88 30.79 16.85 26.86 20.48 24.73 35.51 15.9 39.8 13.38 44.35 15.97 62.95 26.52 63.15 53.14" id="svg_30"/><path class="cls-5" d="M29.07,31.92a2.91,2.91,0,0,0-1.53,2.62V46c-1.74,1-2.25-.35-2.25-1.08V36.08l.11-1.52,1.23-1.92,2.44-.72Zm4,2.32a2.93,2.93,0,0,0-1.53,2.63v6.75l-2.25,1.3V38.41l.11-1.52L30.66,35l2.44-.73Zm4,2.33A2.93,2.93,0,0,0,35.6,39.2v2.09l-2.25,1.3V40.73l.11-1.52,1.23-1.92Z" id="svg_31"/><path class="cls-5" d="M52.47,45.07a3.84,3.84,0,0,1-1.67,3.09l-11,6.36c-1,.55-2.06.56-2.41-.35,0,2.19,2,3.19,3.89,2.09l9.49-5.48L52,49.93l1-2c-.2-.83-.39-2-.59-2.83Zm-4-2.32c.2.82.39,2,.59,2.82l-1,2-1.27.85-9.49,5.49c-1.91,1.1-3.89.09-3.89-2.1.35.91,1.46.9,2.41.36l11-6.37a3.8,3.8,0,0,0,1.67-3.08Zm-4-2.33c.2.83.39,2,.59,2.82l-1,2-1.27.85L33.2,51.61c-1.91,1.1-3.89.09-3.89-2.1.35.92,1.46.91,2.41.36l11-6.37a3.8,3.8,0,0,0,1.67-3.08Zm-4-2.33c.2.83.39,2,.59,2.83l-1,2-1.27.85-9.49,5.48c-1.91,1.1-3.89.1-3.89-2.09.35.91,1.46.9,2.41.35l11-6.36A3.84,3.84,0,0,0,40.38,38.09Z" id="svg_32"/><path class="cls-5" d="M35.6,37.45l3.31-1.91V33l-3.32,1.92a4.33,4.33,0,0,0-2.23,3.84v2.65a3.88,3.88,0,0,1,2.25-3.91Zm-4-2.32A3.74,3.74,0,0,0,29.32,39V36.38a4.36,4.36,0,0,1,2.23-3.84l7.35-4.24v2.59l-7.34,4.24Zm-4-2.33a4.36,4.36,0,0,0-2.25,3.91V34.05a4.36,4.36,0,0,1,2.23-3.84l9.29-5.36c1-.61,2.09.11,2.09,1.39Z" id="svg_33"/><path class="cls-5" d="M52.47,47.19V32.72c0-1.2-.55-2.26-1.55-2,2.37-1.18,3.79.34,3.79,2.63,0,4.11,0,8.48,0,12.6a4.36,4.36,0,0,1-2.21,3.85l-2.3,1.33a4.24,4.24,0,0,0,2.26-3.9Zm-4-2.32a4.26,4.26,0,0,1-2.26,3.9l2.3-1.33a4.37,4.37,0,0,0,2.21-3.86c0-4.11,0-8.49,0-12.6,0-2.29-1.42-3.81-3.79-2.63,1-.22,1.55.84,1.55,2V44.87Zm-4-2.33V28.06c0-1.2-.55-2.25-1.55-2,2.37-1.17,3.79.34,3.79,2.63,0,4.11,0,8.49,0,12.6a4.37,4.37,0,0,1-2.21,3.86l-2.3,1.33a4.25,4.25,0,0,0,2.26-3.9Zm-4-2.33a4.24,4.24,0,0,1-2.26,3.9l2.3-1.33a4.36,4.36,0,0,0,2.21-3.85c0-4.12,0-8.49,0-12.6,0-2.29-1.42-3.81-3.79-2.63,1-.22,1.55.84,1.55,2Z" id="svg_34"/></g></svg>